<?xml version="1.0" encoding="UTF-8"?>
<svg xmlns="http://www.w3.org/2000/svg" xmlns:xlink="http://www.w3.org/1999/xlink" width="512px" height="512px" viewBox="0 0 512 512" version="1.1">
    
    <title>Coffee pot</title>
    <desc>Created with Sketch.</desc>
    <defs/>
    <g id="SVG" stroke="none" stroke-width="1" fill="none" fill-rule="evenodd">
        <g id="Coffee-pot">
            <g id="10" transform="translate(32.000000, 2.000000)">
                <polygon id="Fill-1" fill="#FEFEFE" points="296.137819 268.135616 114.209253 268.135616 73.1029843 98.0754202 337.244087 98.0754202"/>
                <polygon id="Fill-4" fill="#010202" opacity="0.15" points="288.889826 98.0726686 247.783557 268.132865 296.135747 268.132865 337.242015 98.0726686"/>
                <g id="Group-37" transform="translate(0.000000, 0.411840)">
                    <path d="M122.371793,257.402943 L287.978042,257.402943 L324.09022,107.980285 L86.2596151,107.980285 L122.371793,257.402943 L122.371793,257.402943 Z M296.135747,278.040481 L114.20718,278.040481 C109.420314,278.040481 105.255118,274.772871 104.13611,270.136304 L63.0367493,100.076108 C62.2976515,97.0079941 63.002212,93.7610214 64.9639294,91.2776376 C66.9394617,88.7942538 69.93039,87.3427469 73.1078196,87.3427469 L337.242015,87.3427469 C340.419445,87.3427469 343.41728,88.7942538 345.385905,91.2776376 C347.347623,93.7610214 348.059091,97.0079941 347.313085,100.076108 L306.206817,270.136304 C305.087809,274.772871 300.929521,278.040481 296.135747,278.040481 L296.135747,278.040481 Z" id="Fill-2" fill="#2E2E30"/>
                    <path d="M296.137819,303.904821 L114.209253,303.904821 L72.8888532,477.858632 C71.6455112,486.835961 78.9743216,494.802051 88.4789805,494.802051 L321.868091,494.802051 C331.37275,494.802051 338.70156,486.835961 337.465126,477.858632 L296.137819,303.904821 Z" id="Fill-6" fill="#FEFEFE"/>
                    <path d="M337.462363,477.856568 L296.135056,303.902757 L247.782867,303.902757 L289.110174,477.856568 C290.346608,486.833898 283.017798,494.799988 273.520046,494.799988 L321.872236,494.799988 C331.369987,494.799988 338.698797,486.833898 337.462363,477.856568" id="Fill-10" fill="#010202" opacity="0.15"/>
                    <path d="M83.1194857,479.612823 C83.0365963,480.974901 83.6513598,481.999898 84.2108637,482.625904 C85.2400746,483.809122 86.7942521,484.483282 88.4727638,484.483282 L321.868782,484.483282 C323.554201,484.483282 325.108379,483.809122 326.137589,482.625904 C326.697093,481.999898 327.311857,480.974901 327.228967,479.612823 L287.93936,314.22359 L122.409093,314.22359 L83.1194857,479.612823 Z M321.868782,505.120821 L88.4727638,505.120821 C80.8054881,505.120821 73.5526597,501.866969 68.5931066,496.191646 C63.8131473,490.736456 61.6442062,483.540834 62.6181574,476.4484 C62.6665096,476.125079 62.7286767,475.801758 62.8046587,475.478436 L104.125058,301.524624 C105.230251,296.874299 109.409262,293.586051 114.209943,293.586051 L296.13851,293.586051 C300.939191,293.586051 305.118202,296.874299 306.223395,301.524624 L347.543794,475.478436 C347.619776,475.801758 347.681943,476.125079 347.730296,476.4484 C348.704247,483.540834 346.535306,490.736456 341.755347,496.191646 C336.795793,501.866969 329.542965,505.120821 321.868782,505.120821 L321.868782,505.120821 Z" id="Fill-8" fill="#2E2E30"/>
                    <path d="M204.665838,59.2075907 L204.665838,59.2075907 C195.133549,59.2075907 187.335032,51.4409971 187.335032,41.9477294 L187.335032,28.1136994 C187.335032,18.6135526 195.133549,10.8469589 204.665838,10.8469589 L204.665838,10.8469589 C214.198127,10.8469589 221.996644,18.6135526 221.996644,28.1136994 L221.996644,41.9477294 C221.996644,51.4409971 214.198127,59.2075907 204.665838,59.2075907" id="Fill-12" fill="#FEFEFE"/>
                    <path d="M204.66791,21.1664161 C200.820457,21.1664161 197.69138,24.2826844 197.69138,28.1143874 L197.69138,41.9484173 C197.69138,45.7044493 200.889532,48.8895094 204.66791,48.8895094 C208.446288,48.8895094 211.637533,45.7044493 211.637533,41.9484173 L211.637533,28.1143874 C211.637533,24.2826844 208.515363,21.1664161 204.66791,21.1664161 M204.66791,69.5270479 C189.395526,69.5270479 176.969013,57.151404 176.969013,41.9484173 L176.969013,28.1143874 C176.969013,12.9045215 189.395526,0.528877621 204.66791,0.528877621 C219.940294,0.528877621 232.3599,12.9045215 232.3599,28.1143874 L232.3599,41.9484173 C232.3599,57.151404 219.940294,69.5270479 204.66791,69.5270479" id="Fill-14" fill="#2E2E30"/>
                    <path d="M190.867504,52.246549 L75.2988645,97.662892 L337.243397,97.662892 L219.526538,52.1502405 C210.387974,48.146558 199.978438,48.1809539 190.867504,52.246549" id="Fill-16" fill="#FEFEFE"/>
                    <path d="M129.77175,87.3448107 L281.922275,87.3448107 L215.77648,61.7680213 C208.496022,58.5967196 201.512584,58.7893366 195.102466,61.6648336 L129.77175,87.3448107 Z M337.244087,107.982349 L75.2995552,107.982349 C70.3261872,107.982349 66.0504721,104.460209 65.1248731,99.5897502 C64.1923666,94.7192911 66.8724594,89.8832279 71.4935472,88.0602453 L187.062187,42.6439024 C197.948337,37.7803225 211.942842,37.5601887 223.699332,42.705815 L340.994836,88.046487 C345.643553,89.8419528 348.351276,94.678016 347.432584,99.5622334 C346.513893,104.439572 342.23127,107.982349 337.244087,107.982349 L337.244087,107.982349 Z" id="Fill-18" fill="#2E2E30"/>
                    <polygon id="Fill-20" fill="#FEFEFE" points="75.300246 97.6608282 10.3563482 97.6608282 114.209943 267.721024"/>
                    <path d="M28.7909658,107.982349 L89.9495778,208.136323 L67.0375476,107.982349 L28.7909658,107.982349 Z M114.215469,278.042545 C110.68576,278.042545 107.287291,276.2402 105.360111,273.082657 L1.51342353,103.022461 C-0.434478959,99.8374006 -0.503553515,95.8543557 1.32692222,92.607383 C3.16430542,89.3535311 6.61803323,87.3448107 10.3618742,87.3448107 L75.2988645,87.3448107 C80.1409909,87.3448107 84.326909,90.6743335 85.404472,95.3728131 L124.31417,265.433009 C125.440085,270.358502 122.808344,275.380303 118.104367,277.278956 C116.833395,277.801774 115.514071,278.042545 114.215469,278.042545 L114.215469,278.042545 Z" id="Fill-22" fill="#2E2E30"/>
                    <polygon id="Fill-24" fill="#513A2B" points="125.69497 303.904821 286.852817 303.904821 286.852817 267.727216 125.69497 267.727216"/>
                    <path d="M136.049246,293.586051 L276.484726,293.586051 L276.484726,278.039106 L136.049246,278.039106 L136.049246,293.586051 Z M286.84591,314.22359 L125.688062,314.22359 C119.968689,314.22359 115.326879,309.600781 115.326879,303.904821 L115.326879,267.720336 C115.326879,262.024376 119.968689,257.401567 125.688062,257.401567 L286.84591,257.401567 C292.57219,257.401567 297.207093,262.024376 297.207093,267.720336 L297.207093,303.904821 C297.207093,309.600781 292.57219,314.22359 286.84591,314.22359 L286.84591,314.22359 Z" id="Fill-26" fill="#2E2E30"/>
                    <path d="M346.234141,284.921725 L346.234141,284.921725 C396.306287,284.921725 436.894496,244.499666 436.894496,194.632494 L436.894496,146.031091 C436.894496,122.167217 417.470731,102.822965 393.50186,102.822965 L337.240634,102.822965 L328.184959,134.439673 L385.060949,134.439673 C395.152741,134.439673 403.338076,142.591501 403.338076,152.641982 L403.338076,193.65565 C403.338076,225.065984 377.773583,250.525827 346.234141,250.525827 L346.234141,250.525827 L342.953099,250.525827 C333.413903,250.525827 325.68446,258.223629 325.68446,267.723776 L325.68446,267.723776 C325.68446,277.223923 333.413903,284.921725 342.953099,284.921725 L346.234141,284.921725 Z" id="Fill-27" fill="#513A2B"/>
                    <path d="M342.951718,260.842533 C339.138802,260.842533 336.044262,263.924405 336.044262,267.721712 C336.044262,271.519019 339.138802,274.600892 342.951718,274.600892 L346.239667,274.600892 C390.516457,274.600892 426.538838,238.725971 426.538838,194.63043 L426.538838,146.035906 C426.538838,127.89551 411.715439,113.13967 393.500478,113.13967 L345.065399,113.13967 L341.922507,124.11884 L385.059567,124.11884 C400.850011,124.11884 413.697878,136.914114 413.697878,152.639919 L413.697878,193.653587 C413.697878,230.704847 383.436315,260.842533 346.239667,260.842533 L342.951718,260.842533 Z M346.239667,295.23843 L342.951718,295.23843 C327.713871,295.23843 315.321895,282.897182 315.321895,267.721712 C315.321895,252.546242 327.713871,240.204994 342.951718,240.204994 L346.239667,240.204994 C372.011384,240.204994 392.975511,219.326685 392.975511,193.653587 L392.975511,152.639919 C392.975511,148.299156 389.425079,144.756379 385.059567,144.756379 L328.183578,144.756379 C324.937074,144.756379 321.870163,143.23608 319.915353,140.649509 C317.960543,138.062937 317.331965,134.719656 318.223027,131.603388 L327.278701,99.9866788 C328.549673,95.5633664 332.618164,92.5021315 337.24616,92.5021315 L393.500478,92.5021315 C423.14037,92.5021315 447.261205,116.517347 447.261205,146.035906 L447.261205,194.63043 C447.261205,250.104134 401.941389,295.23843 346.239667,295.23843 L346.239667,295.23843 Z" id="Fill-28" fill="#2E2E30"/>
                    <path d="M134.693312,97.6608282 L159.732839,267.721024" id="Fill-29" fill="#FEFEFE"/>
                    <path d="M159.722478,278.040481 C154.66622,278.040481 150.238541,274.353241 149.485629,269.221373 L124.446102,99.1611773 C123.6103,93.5271293 127.533735,88.2783153 133.190941,87.4528138 C138.910314,86.654829 144.118536,90.527807 144.94743,96.1687342 L169.986957,266.222051 C170.815852,271.862978 166.899324,277.104913 161.242118,277.930415 C160.730966,278.006086 160.219815,278.040481 159.722478,278.040481" id="Fill-30" fill="#2E2E30"/>
                    <path d="M159.732839,303.904821 L125.692898,494.802051" id="Fill-31" fill="#FEFEFE"/>
                    <path d="M125.70395,505.120821 C125.103001,505.120821 124.488237,505.065787 123.873474,504.962599 C118.243898,503.965118 114.486242,498.613117 115.487823,492.992827 L149.534672,302.095596 C150.536253,296.489065 155.903346,292.774308 161.546737,293.744272 C167.183221,294.741753 170.940876,300.093755 169.932388,305.714045 L135.892447,496.611275 C135.001385,501.60556 130.628965,505.120821 125.70395,505.120821" id="Fill-32" fill="#2E2E30"/>
                    <path d="M276.871544,97.6608282 L251.832017,267.721024" id="Fill-33" fill="#FEFEFE"/>
                    <path d="M251.846523,278.040481 C251.349186,278.040481 250.838034,278.006086 250.326882,277.930415 C244.669676,277.104913 240.753149,271.862978 241.582044,266.222051 L266.62157,96.1687342 C267.450465,90.527807 272.686316,86.6479498 278.37806,87.4528138 C284.035266,88.2783153 287.958701,93.5271293 287.122899,99.1611773 L262.083372,269.221373 C261.330459,274.353241 256.90278,278.040481 251.846523,278.040481" id="Fill-34" fill="#2E2E30"/>
                    <path d="M251.832017,303.904821 L285.871958,494.802051" id="Fill-35" fill="#FEFEFE"/>
                    <path d="M285.857453,505.120821 C280.932437,505.120821 276.560017,501.60556 275.668956,496.611275 L241.635922,305.714045 C240.627433,300.093755 244.385089,294.741753 250.021573,293.744272 C255.651149,292.767429 261.032057,296.489065 262.033638,302.095596 L296.07358,492.992827 C297.075161,498.613117 293.317505,503.965118 287.687928,504.962599 C287.073165,505.065787 286.458401,505.120821 285.857453,505.120821" id="Fill-36" fill="#2E2E30"/>
                </g>
            </g>
        </g>
    </g>

	<metadata>
		<rdf:RDF xmlns:rdf="http://www.w3.org/1999/02/22-rdf-syntax-ns#" xmlns:rdfs="http://www.w3.org/2000/01/rdf-schema#" xmlns:dc="http://purl.org/dc/elements/1.1/">
			<rdf:Description about="https://iconscout.com/legal#licenses" dc:title="Coffee pot" dc:description="Coffee pot" dc:publisher="Iconscout" dc:date="2017-04-21" dc:format="image/svg+xml" dc:language="en">
				<dc:creator>
					<rdf:Bag>
						<rdf:li>AomAm .</rdf:li>
					</rdf:Bag>
				</dc:creator>
			</rdf:Description>
		</rdf:RDF>
    </metadata></svg>
