<?xml version="1.0" encoding="UTF-8"?>
<svg xmlns="http://www.w3.org/2000/svg" xmlns:xlink="http://www.w3.org/1999/xlink" width="512px" height="512px" viewBox="0 0 512 512" version="1.1">
    
    <title>Cup</title>
    <desc>Created with Sketch.</desc>
    <defs/>
    <g id="SVG" stroke="none" stroke-width="1" fill="none" fill-rule="evenodd">
        <g id="Cup">
            <g id="1" transform="translate(0.000000, 19.000000)">
                <path d="M218.610293,204.454061 L11.7398969,204.454061 C26.7091849,303.700084 57.7041404,402.471916 116.188437,450.155405 C124.576872,456.996206 134.80419,460.649815 145.297559,460.649815 L218.610293,460.649815 L291.923026,460.649815 C302.416395,460.649815 312.643714,456.996206 321.032149,450.155405 C379.516445,402.471916 410.5114,303.700084 425.480688,204.454061 L218.610293,204.454061 Z" id="Fill-1" fill="#FEFEFE"/>
                <g id="Group-5" transform="translate(0.000000, 192.559561)">
                    <path d="M362.884337,11.8945005 C347.907224,111.140524 316.920094,209.912356 258.435798,257.595845 C250.039537,264.436645 239.820044,268.090255 229.31885,268.090255 L291.919114,268.090255 C302.420308,268.090255 312.639801,264.436645 321.036061,257.595845 C379.520358,209.912356 410.507488,111.140524 425.484601,11.8945005 L362.884337,11.8945005 Z" id="Fill-6" fill="#010202" opacity="0.15"/>
                    <path d="M434.13987,11.8945005 C431.158532,11.8945005 428.24762,12.1898987 425.368008,12.6096751 C422.754447,29.828281 419.640084,47.0157924 416.001444,63.9390001 C419.812235,61.5680409 424.162953,60.1065971 428.873623,60.1065971 C443.248208,60.1065971 454.907507,67.7947241 454.907507,88.3093521 C454.907507,113.550351 423.662151,128.421319 409.287565,128.421319 C404.326494,128.421319 402.057235,125.467337 401.165181,121.005269 C394.412178,142.623754 386.493244,163.099514 377.330131,181.880621 C379.58374,182.665758 382.040801,183.217686 385.006488,183.217686 C421.056415,183.217686 499.416295,145.912002 499.416295,82.6190498 C499.416295,31.1731202 470.189797,11.8945005 434.13987,11.8945005" id="Fill-8" fill="#FEFEFE"/>
                    <path d="M434.13987,11.8945005 C431.158532,11.8945005 428.24762,12.1898987 425.368008,12.6096751 C422.754447,29.828281 419.640084,47.0157924 416.001444,63.9390001 C419.812235,61.5680409 424.162953,60.1065971 428.873623,60.1065971 C443.248208,60.1065971 454.907507,67.7947241 454.907507,88.3093521 C454.907507,113.550351 423.662151,128.421319 409.287565,128.421319 C404.326494,128.421319 402.057235,125.467337 401.165181,121.005269 C394.412178,142.623754 386.493244,163.099514 377.330131,181.880621 C379.58374,182.665758 382.040801,183.217686 385.006488,183.217686 C421.056415,183.217686 499.416295,145.912002 499.416295,82.6190498 C499.416295,31.1731202 470.189797,11.8945005 434.13987,11.8945005" id="Fill-12" fill="#010202" opacity="0.15"/>
                    <path d="M25.4689172,23.5565107 C38.6853978,103.073043 66.292114,201.829328 123.633955,248.579981 C129.933107,253.710581 137.421663,256.431354 145.293647,256.431354 L291.919114,256.431354 C299.798922,256.431354 307.295304,253.710581 313.58663,248.579981 C370.928471,201.821554 398.535188,103.073043 411.751668,23.5565107 L25.4689172,23.5565107 Z M291.919114,279.752265 L145.293647,279.752265 C132.116291,279.752265 119.142387,275.080309 108.750743,266.614818 C42.3553383,212.486984 13.0349399,99.1629041 0.131460553,13.6218026 C-0.377166588,10.2713651 0.608787563,6.85873844 2.83892195,4.2856646 C5.07688137,1.71259075 8.32427004,0.235599724 11.7359844,0.235599724 L425.484601,0.235599724 C428.90414,0.235599724 432.151529,1.71259075 434.381663,4.2856646 C436.611798,6.85873844 437.597752,10.2713651 437.09695,13.6218026 C424.185646,99.1629041 394.865247,212.47921 328.485493,266.614818 C318.086024,275.080309 305.096469,279.752265 291.919114,279.752265 L291.919114,279.752265 Z" id="Fill-3" fill="#2E2E30"/>
                </g>
                <path d="M407.252274,332.55738 C403.551034,343.215036 399.591567,353.429595 395.405174,363.138868 C429.819669,357.238677 487.677963,325.024725 487.677963,275.180165 C487.677963,236.498547 470.134239,216.636905 435.524118,216.123845 C434.162563,224.527146 432.691456,232.852712 431.118625,241.053899 C453.091317,242.010056 466.644274,257.083138 466.644274,280.870467 C466.644274,314.374843 428.755465,332.64289 409.286783,332.64289 C408.59818,332.64289 407.917402,332.611795 407.252274,332.55738 M385.005706,387.439257 C381.061889,387.439257 377.282398,386.786271 373.440307,385.441432 C370.278994,384.337576 367.751508,381.951069 366.483853,378.880483 C365.208372,375.809896 365.317923,372.350627 366.773379,369.357777 C375.40439,351.672753 383.205948,331.741148 389.958951,310.107116 C391.547433,305.00761 396.430254,301.58721 401.798226,301.921476 C406.368046,302.162459 410.304037,305.00761 412.009894,309.08877 C422.925815,307.386343 443.169175,296.557667 443.169175,280.870467 C443.169175,266.333766 436.298797,264.328168 428.880665,264.328168 C426.650531,264.328168 424.420397,265.020022 422.229387,266.380408 C418.246446,268.860198 413.128874,268.73582 409.271133,266.053915 C405.413392,263.364237 403.535384,258.645639 404.521338,254.059193 C408.042603,237.719008 411.141316,220.68697 413.762702,203.429496 C414.53738,198.345537 418.551622,194.373209 423.677018,193.626939 C427.58171,193.059464 430.907349,192.79516 434.146912,192.79516 C482.37259,192.79516 511.153062,223.59431 511.153062,275.180165 C511.153062,344.816405 429.483193,387.439257 385.005706,387.439257" id="Fill-10" fill="#2E2E30"/>
                <path d="M142.507935,152.41578 C136.028808,152.41578 130.770385,147.19967 130.770385,140.755325 L130.770385,66.9679625 C130.770385,60.531391 136.028808,55.307507 142.507935,55.307507 C148.987062,55.307507 154.245484,60.531391 154.245484,66.9679625 L154.245484,140.755325 C154.245484,147.19967 148.987062,152.41578 142.507935,152.41578" id="Fill-14" fill="#2E2E30"/>
                <path d="M290.771181,152.41578 C284.292054,152.41578 279.033632,147.19967 279.033632,140.755325 L279.033632,66.9679625 C279.033632,60.531391 284.292054,55.307507 290.771181,55.307507 C297.250309,55.307507 302.508731,60.531391 302.508731,66.9679625 L302.508731,140.755325 C302.508731,147.19967 297.250309,152.41578 290.771181,152.41578" id="Fill-16" fill="#2E2E30"/>
                <path d="M216.563264,152.41578 C210.084137,152.41578 204.825715,147.19967 204.825715,140.755325 L204.825715,11.985028 C204.825715,5.54068295 210.084137,0.324572533 216.563264,0.324572533 C223.042391,0.324572533 228.300813,5.54068295 228.300813,11.985028 L228.300813,140.755325 C228.300813,147.19967 223.042391,152.41578 216.563264,152.41578" id="Fill-18" fill="#2E2E30"/>
                <path d="M92.3080011,418.355011 L344.915714,418.355011" id="Fill-20" fill="#FEFEFE"/>
                <path d="M344.911802,430.016244 L92.3119136,430.016244 C85.8327863,430.016244 80.5743642,424.800134 80.5743642,418.355789 C80.5743642,411.911443 85.8327863,406.695333 92.3119136,406.695333 L344.911802,406.695333 C351.390929,406.695333 356.649351,411.911443 356.649351,418.355789 C356.649351,424.800134 351.390929,430.016244 344.911802,430.016244" id="Fill-22" fill="#2E2E30"/>
            </g>
        </g>
    </g>

	<metadata>
		<rdf:RDF xmlns:rdf="http://www.w3.org/1999/02/22-rdf-syntax-ns#" xmlns:rdfs="http://www.w3.org/2000/01/rdf-schema#" xmlns:dc="http://purl.org/dc/elements/1.1/">
			<rdf:Description about="https://iconscout.com/legal#licenses" dc:title="Cup" dc:description="Cup" dc:publisher="Iconscout" dc:date="2017-04-21" dc:format="image/svg+xml" dc:language="en">
				<dc:creator>
					<rdf:Bag>
						<rdf:li>AomAm .</rdf:li>
					</rdf:Bag>
				</dc:creator>
			</rdf:Description>
		</rdf:RDF>
    </metadata></svg>
