<?xml version="1.0" encoding="UTF-8"?>
<svg xmlns="http://www.w3.org/2000/svg" xmlns:xlink="http://www.w3.org/1999/xlink" width="512px" height="512px" viewBox="0 0 512 512" version="1.1">
    
    <title>coffee cup</title>
    <desc>Created with Sketch.</desc>
    <defs/>
    <g id="SVG" stroke="none" stroke-width="1" fill="none" fill-rule="evenodd">
        <g id="coffee-cup">
            <g id="7" transform="translate(3.000000, 6.000000)">
                <path d="M495.004706,253.021003 C495.004706,386.941292 386.63178,495.509763 252.952697,495.509763 C119.273613,495.509763 10.9006875,386.941292 10.9006875,253.021003 C10.9006875,119.100713 119.273613,10.5322425 252.952697,10.5322425 C386.63178,10.5322425 495.004706,119.100713 495.004706,253.021003" id="Fill-1" fill="#FEFEFE"/>
                <g id="Group-5" transform="translate(0.000000, 0.275977)">
                    <path d="M421.4789,78.7670106 C447.062277,117.217931 461.999114,163.392097 461.999114,213.070817 C461.999114,346.991107 353.632788,455.559578 219.947105,455.559578 C154.417754,455.559578 95.0070283,429.427499 51.4242017,387.048833 C94.8090145,452.253394 168.859557,495.233786 252.949396,495.233786 C386.63508,495.233786 495.001406,386.665315 495.001406,252.745026 C495.001406,184.472326 466.797647,122.838443 421.4789,78.7670106" id="Fill-6" fill="#010202" opacity="0.15"/>
                    <path d="M252.952037,20.173495 C124.942747,20.173495 20.800715,124.503438 20.800715,252.743703 C20.800715,380.983969 124.942747,485.313911 252.952037,485.313911 C380.961326,485.313911 485.103358,380.983969 485.103358,252.743703 C485.103358,124.503438 380.961326,20.173495 252.952037,20.173495 M252.952037,505.151015 C114.025589,505.151015 0.999339954,391.920825 0.999339954,252.743703 C0.999339954,113.566581 114.025589,0.33639095 252.952037,0.33639095 C391.878484,0.33639095 504.904733,113.566581 504.904733,252.743703 C504.904733,391.920825 391.878484,505.151015 252.952037,505.151015" id="Fill-3" fill="#2E2E30"/>
                </g>
                <path d="M438.938432,271.523731 L361.468853,271.523731 C349.442817,271.523731 339.700541,261.757263 339.700541,249.716141 L339.700541,249.716141 C339.700541,237.668407 349.442817,227.908551 361.468853,227.908551 L438.938432,227.908551 C450.964468,227.908551 460.706744,237.668407 460.706744,249.716141 L460.706744,249.716141 C460.706744,261.757263 450.964468,271.523731 438.938432,271.523731" id="Fill-8" fill="#FEFEFE"/>
                <path d="M361.466212,237.821152 C354.925158,237.821152 349.598588,243.163946 349.598588,249.716802 C349.598588,256.269659 354.925158,261.60584 361.466212,261.60584 L438.935792,261.60584 C445.483447,261.60584 450.803416,256.269659 450.803416,249.716802 C450.803416,243.163946 445.483447,237.821152 438.935792,237.821152 L361.466212,237.821152 Z M438.935792,281.442944 L361.466212,281.442944 C344.0014,281.442944 329.797213,267.206516 329.797213,249.716802 C329.797213,232.220477 344.0014,217.984048 361.466212,217.984048 L438.935792,217.984048 C456.400605,217.984048 470.604791,232.220477 470.604791,249.716802 C470.604791,267.206516 456.400605,281.442944 438.935792,281.442944 L438.935792,281.442944 Z" id="Fill-10" fill="#2E2E30"/>
                <path d="M390.501629,253.021003 C390.501629,329.122746 328.919352,390.81614 252.954677,390.81614 C176.983401,390.81614 115.401125,329.122746 115.401125,253.021003 C115.401125,176.919259 176.983401,115.225865 252.954677,115.225865 C328.919352,115.225865 390.501629,176.919259 390.501629,253.021003" id="Fill-12" fill="#FEFEFE"/>
                <path d="M252.952037,125.143095 C182.571349,125.143095 125.305772,182.512 125.305772,253.01968 C125.305772,323.52736 182.571349,380.896265 252.952037,380.896265 C323.339325,380.896265 380.604901,323.52736 380.604901,253.01968 C380.604901,182.512 323.339325,125.143095 252.952037,125.143095 M252.952037,400.73337 C171.654191,400.73337 105.504397,334.47083 105.504397,253.01968 C105.504397,171.568531 171.654191,105.305991 252.952037,105.305991 C334.256483,105.305991 400.406277,171.568531 400.406277,253.01968 C400.406277,334.47083 334.256483,400.73337 252.952037,400.73337" id="Fill-14" fill="#2E2E30"/>
                <path d="M355.10073,253.021003 C355.10073,309.536912 309.366154,355.35401 252.952037,355.35401 C196.537919,355.35401 150.803343,309.536912 150.803343,253.021003 C150.803343,196.505093 196.537919,150.687995 252.952037,150.687995 C309.366154,150.687995 355.10073,196.505093 355.10073,253.021003" id="Fill-16" fill="#513A2B"/>
                <path d="M287.970769,156.990904 C308.86782,175.730355 322.095138,202.874126 322.095138,233.185221 C322.095138,289.701131 276.367163,335.518229 219.953045,335.518229 C207.629989,335.518229 195.867972,333.217125 184.931013,329.21003 C203.003068,345.416944 226.79112,355.355333 252.955337,355.355333 C309.369455,355.355333 355.09743,309.538235 355.09743,253.022325 C355.09743,208.845094 327.111487,171.326518 287.970769,156.990904" id="Fill-20" fill="#010202" opacity="0.15"/>
                <path d="M252.952037,160.607208 C202.088905,160.607208 160.704031,202.066756 160.704031,253.021664 C160.704031,303.976572 202.088905,345.436119 252.952037,345.436119 C303.815169,345.436119 345.200043,303.976572 345.200043,253.021664 C345.200043,202.066756 303.815169,160.607208 252.952037,160.607208 M252.952037,365.273224 C191.171746,365.273224 140.902655,314.913429 140.902655,253.021664 C140.902655,191.123287 191.171746,140.770104 252.952037,140.770104 C314.732327,140.770104 365.001418,191.123287 365.001418,253.021664 C365.001418,314.913429 314.732327,365.273224 252.952037,365.273224" id="Fill-18" fill="#2E2E30"/>
            </g>
        </g>
    </g>

	<metadata>
		<rdf:RDF xmlns:rdf="http://www.w3.org/1999/02/22-rdf-syntax-ns#" xmlns:rdfs="http://www.w3.org/2000/01/rdf-schema#" xmlns:dc="http://purl.org/dc/elements/1.1/">
			<rdf:Description about="https://iconscout.com/legal#licenses" dc:title="coffee cup" dc:description="coffee cup" dc:publisher="Iconscout" dc:date="2017-04-21" dc:format="image/svg+xml" dc:language="en">
				<dc:creator>
					<rdf:Bag>
						<rdf:li>AomAm .</rdf:li>
					</rdf:Bag>
				</dc:creator>
			</rdf:Description>
		</rdf:RDF>
    </metadata></svg>
