<?xml version="1.0" encoding="UTF-8"?>
<svg xmlns="http://www.w3.org/2000/svg" xmlns:xlink="http://www.w3.org/1999/xlink" width="512px" height="512px" viewBox="0 0 512 512" version="1.1">
    
    <title>Cold drink</title>
    <desc>Created with Sketch.</desc>
    <defs/>
    <g id="SVG" stroke="none" stroke-width="1" fill="none" fill-rule="evenodd">
        <g id="Cold-drink">
            <g id="3" transform="translate(89.000000, 0.000000)">
                <path d="M198.748321,10.6033869 C190.726652,20.2736758 178.63418,26.437778 165.109518,26.437778 C151.874117,26.437778 140.042683,20.528157 132.028069,11.2183833 C71.2482268,26.6710525 26.222463,81.6884927 26.222463,147.387078 C26.222463,225.053353 89.0694551,288.023333 166.584038,288.023333 C244.105676,288.023333 306.945613,225.053353 306.945613,147.387078 C306.945613,80.819015 260.741644,25.1936473 198.748321,10.6033869 L198.748321,10.6033869 Z" id="Fill-1" fill="#FEFEFE"/>
                <path d="M128.865965,23.1076076 C74.3581228,39.6418223 36.8037291,89.9160141 36.8037291,147.386371 C36.8037291,219.086473 95.0225638,277.419239 166.589682,277.419239 C238.14269,277.419239 296.361524,219.086473 296.361524,147.386371 C296.361524,88.799124 257.911131,38.2492441 202.133367,22.4289909 C192.129209,31.788247 178.971414,37.040458 165.108107,37.040458 C151.646942,37.040458 138.778406,32.0356594 128.865965,23.1076076 M166.589682,298.626013 C83.3533984,298.626013 15.6383748,230.778475 15.6383748,147.386371 C15.6383748,78.1957371 62.4279181,17.9755684 129.42332,0.946529004 C133.289524,-0.0431204401 137.416769,1.25049276 140.041272,4.29719927 C146.355603,11.6276741 155.491981,15.8336842 165.108107,15.8336842 C174.985272,15.8336842 184.276863,11.4580199 190.612359,3.82358132 C193.173367,0.727392342 197.272391,-0.629841182 201.166816,0.282050092 C269.679068,16.4062671 317.526879,76.8950549 317.526879,147.386371 C317.526879,230.778475 249.81891,298.626013 166.589682,298.626013" id="Fill-3" fill="#2E2E30"/>
                <polygon id="Fill-5" fill="#F8E6C4" points="265.909518 500.010485 67.2656126 500.010485 30.5225575 220.936411 302.652573 220.936411"/>
                <polygon id="Fill-9" fill="#010202" opacity="0.15" points="253.265335 220.938532 216.52228 500.012606 265.908107 500.012606 302.651162 220.938532"/>
                <path d="M76.5452094,489.407805 L256.627099,489.407805 L290.583383,231.540505 L42.5959811,231.540505 L76.5452094,489.407805 Z M265.911635,510.614579 L67.2677291,510.614579 C61.9552252,510.614579 57.4681701,506.670119 56.7697134,501.396701 L20.0266583,222.329696 C19.6315717,219.304196 20.548737,216.243352 22.5665008,213.95302 C24.5772094,211.65562 27.476863,210.333731 30.524674,210.333731 L302.65469,210.333731 C305.695446,210.333731 308.602154,211.65562 310.612863,213.95302 C312.623572,216.243352 313.547792,219.304196 313.14565,222.329696 L276.402595,501.396701 C275.704139,506.670119 271.224139,510.614579 265.911635,510.614579 L265.911635,510.614579 Z" id="Fill-7" fill="#2E2E30"/>
                <path d="M56.6363717,168.592438 C56.6363717,168.592438 55.7050961,113.963789 80.8636472,106.894864 C106.022198,99.8259395 190.683616,171.971384 273.581254,168.592438" id="Fill-11" fill="#FEFEFE"/>
                <path d="M267.908233,179.310341 C217.365367,179.310341 167.457461,154.300486 130.629745,135.850593 C112.434595,126.73168 89.7100598,115.393125 83.7273197,117.103805 C71.980548,120.404993 66.9290835,149.67741 67.2183433,168.417129 C67.3030047,174.277267 62.6395717,179.098274 56.804989,179.19017 C51.1185638,179.267928 46.1517606,174.623644 46.052989,168.770575 C45.9401071,162.344922 45.9118866,105.70163 78.0056189,96.6816818 C91.9747528,92.7654976 111.108233,102.350959 140.097713,116.877599 C176.34691,135.044736 226.057272,159.86373 273.150186,157.997534 C278.857776,157.778397 283.923351,162.309578 284.15617,168.162647 C284.388989,174.008648 279.845493,178.949826 274.003855,179.183101 C271.971981,179.267928 269.940107,179.310341 267.908233,179.310341" id="Fill-13" fill="#2E2E30"/>
                <path d="M134.850117,126.108201 C134.850117,126.108201 208.322117,108.662095 229.487471,99.8259395 C250.652825,90.9897837 282.400857,94.2132133 273.581959,168.592438 C273.581959,168.592438 190.564384,159.911799 134.850117,126.108201" id="Fill-15" fill="#FEFEFE"/>
                <path d="M91.9119622,106.404281 C91.9119622,106.404281 165.108813,96.3593388 165.108813,52.1078708 C165.108813,52.1078708 224.195427,49.1106468 240.069443,96.8258879 L134.849411,126.105374 L91.9119622,106.404281 Z" id="Fill-19" fill="#FEFEFE"/>
                <path d="M165.106696,52.1078708 C165.106696,52.1078708 231.509468,118.470935 232.687672,168.58961 L273.579137,168.58961 C273.579137,168.58961 289.530759,96.5855444 245.619704,96.3593388 C245.619704,96.3593388 222.168491,46.9051423 165.106696,52.1078708" id="Fill-30" fill="#010202" opacity="0.15"/>
                <path d="M164.878816,129.627819 C202.383824,146.013586 244.778028,153.739921 264.094942,156.631111 C266.10565,127.613175 260.341619,116.07669 256.433083,111.665681 C253.582816,108.45639 250.069367,106.957777 245.363603,106.957777 C241.786658,106.957777 237.701745,107.876738 233.553335,109.608624 C220.275603,115.15773 188.358249,123.682853 164.878816,129.627819 M273.591131,179.195118 C273.217209,179.195118 272.857398,179.18098 272.483477,179.138567 C268.998249,178.778051 186.453367,169.814655 129.370406,135.176925 C125.69469,132.950213 123.733367,128.715927 124.403603,124.460435 C125.059729,120.204942 128.234532,116.783583 132.411162,115.786864 C133.137839,115.61721 205.283477,98.4397234 225.411729,90.034772 C243.479887,82.4992984 261.336391,85.2703168 272.257713,97.5843835 C284.364296,111.241546 288.230501,134.88003 284.082091,169.842931 C283.454186,175.229451 278.882469,179.195118 273.591131,179.195118" id="Fill-17" fill="#2E2E30"/>
                <path d="M123.499137,109.235385 L135.739767,114.85518 L225.297436,89.9372208 C212.640554,69.2323407 187.735987,64.1992664 174.493531,63.0187559 C168.828271,87.9155084 144.184743,101.813014 123.499137,109.235385 M134.850822,136.712295 C133.348082,136.712295 131.845342,136.387124 130.448428,135.743852 L87.5039244,116.042759 C83.2285228,114.084667 80.7592315,109.53228 81.443578,104.86679 C82.1279244,100.201299 85.8036409,96.5537343 90.4600189,95.9033932 C91.1020346,95.8114972 154.520491,86.0210366 154.520491,52.1043364 C154.520491,46.4774724 158.958161,41.82612 164.574035,41.5150873 C164.574035,41.5150873 165.498255,41.4656048 167.170318,41.4656048 C178.126917,41.4656048 233.636586,43.9750731 250.103231,93.4787521 C251.020397,96.2285637 250.773468,99.2399256 249.41183,101.805945 C248.043137,104.371965 245.693783,106.266437 242.899956,107.044018 L137.68698,136.323504 C136.755704,136.585054 135.803263,136.712295 134.850822,136.712295" id="Fill-21" fill="#2E2E30"/>
                <polygon id="Fill-23" fill="#F8E6C4" points="10.5826772 221.530907 322.58822 221.530907 322.58822 168.591731 10.5826772 168.591731"/>
                <polygon id="Fill-26" fill="#010202" opacity="0.15" points="273.202394 221.530907 322.58822 221.530907 322.58822 168.5988 273.202394 168.5988"/>
                <path d="M21.1653543,210.920452 L312.012598,210.920452 L312.012598,179.195118 L21.1653543,179.195118 L21.1653543,210.920452 Z M322.595276,232.127225 L10.5826772,232.127225 C4.74103937,232.127225 0,227.383977 0,221.523839 L0,168.591731 C0,162.738662 4.74103937,157.988344 10.5826772,157.988344 L322.595276,157.988344 C328.436913,157.988344 333.177953,162.738662 333.177953,168.591731 L333.177953,221.523839 C333.177953,227.383977 328.436913,232.127225 322.595276,232.127225 L322.595276,232.127225 Z" id="Fill-25" fill="#2E2E30"/>
                <path d="M222.80698,341.627695 C222.80698,371.232351 198.854854,395.23135 169.308019,395.23135 C139.761184,395.23135 115.802003,371.232351 115.802003,341.627695 C115.802003,312.023039 139.761184,288.02404 169.308019,288.02404 C198.854854,288.02404 222.80698,312.023039 222.80698,341.627695" id="Fill-27" fill="#FBAE3A"/>
                <path d="M190.300523,292.316998 C193.052019,298.777995 194.58298,305.882264 194.58298,313.354117 C194.58298,342.958774 170.630854,366.957773 141.084019,366.957773 C133.633814,366.957773 126.536365,365.423816 120.087987,362.666935 C128.250759,381.809583 147.214917,395.233471 169.304491,395.233471 C198.851326,395.233471 222.803452,371.234472 222.803452,341.629816 C222.803452,319.489944 209.412838,300.495744 190.300523,292.316998" id="Fill-29" fill="#010202" opacity="0.15"/>
                <path d="M169.308724,298.626013 C145.645858,298.626013 126.385386,317.917108 126.385386,341.626281 C126.385386,365.342523 145.645858,384.633619 169.308724,384.633619 C192.971591,384.633619 212.225008,365.342523 212.225008,341.626281 C212.225008,317.917108 192.971591,298.626013 169.308724,298.626013 M169.308724,405.840392 C133.969638,405.840392 105.220031,377.034525 105.220031,341.626281 C105.220031,306.225107 133.969638,277.419239 169.308724,277.419239 C204.647811,277.419239 233.390362,306.225107 233.390362,341.626281 C233.390362,377.034525 204.647811,405.840392 169.308724,405.840392" id="Fill-28" fill="#2E2E30"/>
            </g>
        </g>
    </g>

	<metadata>
		<rdf:RDF xmlns:rdf="http://www.w3.org/1999/02/22-rdf-syntax-ns#" xmlns:rdfs="http://www.w3.org/2000/01/rdf-schema#" xmlns:dc="http://purl.org/dc/elements/1.1/">
			<rdf:Description about="https://iconscout.com/legal#licenses" dc:title="Cold drink" dc:description="Cold drink" dc:publisher="Iconscout" dc:date="2017-04-21" dc:format="image/svg+xml" dc:language="en">
				<dc:creator>
					<rdf:Bag>
						<rdf:li>AomAm .</rdf:li>
					</rdf:Bag>
				</dc:creator>
			</rdf:Description>
		</rdf:RDF>
    </metadata></svg>
